<svg width="2880" height="1028" viewBox="0 0 2880 1028" fill="none" xmlns="http://www.w3.org/2000/svg">
<g clip-path="url(#clip0_4456_2770)">
<rect width="2880" height="1028" fill="#080808"/>
<g clip-path="url(#clip1_4456_2770)">
<rect width="3068.66" height="1028" fill="#080808"/>
<path d="M169.317 1026.49H-13.5246V10.1942H402.441C489.291 10.1942 548.714 19.3363 615.756 60.4758C713.272 121.423 752.888 217.415 752.888 311.883C752.888 511.486 597.472 624.238 423.772 624.238H169.317V1026.49ZM169.317 162.562V467.299H387.204C519.764 467.299 560.904 386.544 560.904 316.454C560.904 275.315 545.667 243.318 533.477 225.033C506.051 180.847 452.722 162.562 370.443 162.562H169.317ZM858.986 1026.49V275.315H1011.35V455.109C1029.64 400.257 1081.44 246.365 1241.43 253.983V436.825C1201.81 436.825 1139.34 435.302 1084.49 497.773C1055.54 531.294 1028.11 605.954 1028.11 721.754V1026.49H858.986ZM1809.85 787.272L1962.21 808.604C1908.89 974.685 1777.85 1041.73 1630.05 1041.73C1381.69 1041.73 1284.18 842.125 1284.18 653.188C1284.18 432.254 1416.74 260.078 1637.67 260.078C1881.46 260.078 1980.5 453.586 1975.93 671.472H1460.92C1459.4 721.754 1457.88 781.177 1500.54 840.601C1532.54 887.835 1579.77 909.167 1640.72 909.167C1761.09 909.167 1793.09 828.412 1809.85 787.272ZM1460.92 561.767H1799.18C1797.66 523.675 1794.61 488.63 1762.61 444.444C1732.14 404.828 1689.48 378.925 1631.58 378.925C1573.68 378.925 1527.97 403.304 1495.97 452.062C1470.07 490.154 1465.49 522.151 1460.92 561.767ZM2008.56 854.314L2168.54 823.841C2183.78 858.885 2209.68 915.261 2328.53 915.261C2365.1 915.261 2486.99 912.214 2486.99 822.317C2486.99 775.083 2435.19 753.751 2404.71 747.656L2267.58 720.23C2195.97 708.041 2039.03 672.996 2039.03 499.296C2039.03 418.541 2083.22 260.078 2327.01 260.078C2415.38 260.078 2570.8 278.362 2618.03 433.778L2467.18 464.252C2459.57 439.873 2439.76 380.449 2331.58 380.449C2238.63 380.449 2195.97 415.494 2195.97 465.775C2195.97 511.486 2244.73 534.341 2305.67 546.53L2467.18 580.051C2589.08 604.43 2656.12 679.091 2656.12 796.414C2656.12 1005.16 2432.14 1041.73 2328.53 1041.73C2150.26 1041.73 2039.03 965.543 2008.56 854.314ZM2669.99 854.314L2829.98 823.841C2845.21 858.885 2871.12 915.261 2989.96 915.261C3026.53 915.261 3148.43 912.214 3148.43 822.317C3148.43 775.083 3096.62 753.751 3066.15 747.656L2929.01 720.23C2857.4 708.041 2700.46 672.996 2700.46 499.296C2700.46 418.541 2744.65 260.078 2988.44 260.078C3076.81 260.078 3232.23 278.362 3279.46 433.778L3128.62 464.252C3121 439.873 3101.19 380.449 2993.01 380.449C2900.07 380.449 2857.4 415.494 2857.4 465.775C2857.4 511.486 2906.16 534.341 2967.11 546.53L3128.62 580.051C3250.51 604.43 3317.55 679.091 3317.55 796.414C3317.55 1005.16 3093.57 1041.73 2989.96 1041.73C2811.69 1041.73 2700.46 965.543 2669.99 854.314Z" fill="#282828"/>
<rect y="32.2207" width="3068.66" height="26.0836" fill="#080808"/>
<rect y="122.746" width="3068.66" height="26.0836" fill="#080808"/>
<rect y="213.271" width="3068.66" height="26.0836" fill="#080808"/>
<rect y="303.797" width="3068.66" height="26.0836" fill="#080808"/>
<rect y="394.322" width="3068.66" height="26.0836" fill="#080808"/>
<rect y="484.848" width="3068.66" height="26.0836" fill="#080808"/>
<rect y="575.373" width="3068.66" height="26.0836" fill="#080808"/>
<rect y="665.898" width="3068.66" height="26.0836" fill="#080808"/>
<rect y="756.424" width="3068.66" height="26.0836" fill="#080808"/>
<rect y="846.949" width="3068.66" height="26.0836" fill="#080808"/>
<rect y="937.475" width="3068.66" height="26.0836" fill="#080808"/>
<rect y="58.3047" width="3068.66" height="32.2209" fill="#282828"/>
<rect y="148.83" width="3068.66" height="32.2209" fill="#282828"/>
<rect y="239.355" width="3068.66" height="32.2209" fill="#282828"/>
<rect y="329.881" width="3068.66" height="32.2209" fill="#282828"/>
<rect y="420.406" width="3068.66" height="32.2209" fill="#282828"/>
<rect y="510.932" width="3068.66" height="32.2209" fill="#282828"/>
<rect y="601.457" width="3068.66" height="32.2209" fill="#282828"/>
<rect y="691.981" width="3068.66" height="32.2209" fill="#282828"/>
<rect y="782.507" width="3068.66" height="32.2209" fill="#282828"/>
<rect y="873.032" width="3068.66" height="32.2209" fill="#282828"/>
<rect y="963.558" width="3068.66" height="32.2209" fill="#282828"/>
</g>
</g>
<defs>
<clipPath id="clip0_4456_2770">
<rect width="2880" height="1028" fill="white"/>
</clipPath>
<clipPath id="clip1_4456_2770">
<rect width="3068.66" height="1028" fill="white"/>
</clipPath>
</defs>
</svg>
