<svg width="48" height="48" viewBox="0 0 48 48" fill="none" xmlns="http://www.w3.org/2000/svg">
<path d="M0 9.01408C0 4.03574 4.03574 0 9.01408 0H38.9859C43.9643 0 48 4.03574 48 9.01408V38.9859C48 43.9643 43.9643 48 38.9859 48H9.01408C4.03574 48 0 43.9643 0 38.9859V9.01408Z" fill="#BCBFB0"/>
<g clip-path="url(#clip0_4299_4863)">
<rect width="28.169" height="27.9437" transform="translate(9.91553 9.91406)" fill="#BCBFB0"/>
<path d="M30.1846 23.5742L30.6611 23.0986L25.2773 17.7148L25.7559 17.2363L31.1396 22.6201L31.1406 22.6182L37.6445 29.1221L36.6885 30.0781L30.1846 23.5742ZM10.3594 29.1221L16.8633 22.6182L16.8643 22.6191L22.2461 17.2373L22.7246 17.7158L17.3428 23.0977L17.8193 23.5742L11.3154 30.0781L10.3594 29.1221Z" fill="#080808"/>
<path d="M30.1846 16.4141L30.6621 15.9375L25.1758 10.4521L25.6543 9.97363L31.1396 15.459L31.1406 15.458L37.6445 21.9619L36.6885 22.918L30.1846 16.4141ZM10.3594 21.9619L16.8633 15.458L16.8652 15.46L22.3496 9.97656L22.8271 10.4541L17.3428 15.9375L17.8193 16.4141L11.3154 22.918L10.3594 21.9619Z" fill="#080808"/>
<path d="M30.1846 30.4531L30.6611 29.9766L25.0713 24.3867L25.5498 23.9092L31.1396 29.499L31.1406 29.4971L37.6445 36.001L36.6885 36.957L30.1846 30.4531ZM10.3594 36.001L16.8633 29.4971L16.8643 29.498L22.4521 23.9102L22.9297 24.3877L17.3418 29.9756L17.8193 30.4531L11.3154 36.957L10.3594 36.001Z" fill="#080808"/>
</g>
<defs>
<clipPath id="clip0_4299_4863">
<rect width="28.169" height="27.9437" fill="white" transform="translate(9.91553 9.91406)"/>
</clipPath>
</defs>
</svg>
