<svg width="48" height="48" viewBox="0 0 48 48" fill="none" xmlns="http://www.w3.org/2000/svg">
<path d="M0 8.63492C0 3.86598 3.86599 0 8.63492 0H39.3651C44.134 0 48 3.86599 48 8.63492V39.3651C48 44.134 44.134 48 39.3651 48H8.63492C3.86598 48 0 44.134 0 39.3651V8.63492Z" fill="#BCBFB0"/>
<g clip-path="url(#clip0_4299_4844)">
<rect width="27.7178" height="27.7178" transform="translate(10.1406 10.3672)" fill="#BCBFB0"/>
<path d="M22.4683 26.125L17.4976 31.0967L17.9761 31.5752L11.6626 37.8887L10.7065 36.9326L21.9907 25.6475L22.4683 26.125ZM37.2729 36.8877L37.271 36.8887L37.2749 36.8916L36.3188 37.8477L30.0044 31.5332L30.4839 31.0537L25.5454 26.1152L26.0229 25.6377L37.2729 36.8877ZM24.0024 27.6592L24.3374 27.3242V37.6367H22.9849V30.874H23.6606V27.3174L24.0024 27.6592ZM20.4595 24.1162L20.7681 24.4248H17.2251V25.1006H10.4761V23.748H20.8276L20.4595 24.1162ZM37.52 23.748V25.1006H30.771V24.4248H27.2368L27.5454 24.1162L27.1772 23.748H37.52ZM37.7778 11.7764L31.4634 18.0898L30.9839 17.6104L26.0112 22.582L25.5337 22.1045L36.8188 10.8203L36.8198 10.8213L36.8218 10.8203L37.7778 11.7764ZM22.48 22.0947L22.0024 22.5723L17.0405 17.6104L16.5591 18.0928L10.2456 11.7793L11.2017 10.8232L11.2056 10.8203L22.48 22.0947ZM24.3374 10.54H25.0132V17.2754H24.3374V20.9082L24.0024 20.5732L23.6606 20.915V10.5391H24.3374V10.54Z" fill="#080808"/>
</g>
<defs>
<clipPath id="clip0_4299_4844">
<rect width="27.7178" height="27.7178" fill="white" transform="translate(10.1406 10.3672)"/>
</clipPath>
</defs>
</svg>
