<svg width="48" height="48" viewBox="0 0 48 48" fill="none" xmlns="http://www.w3.org/2000/svg">
<path d="M0 9.01408C0 4.03574 4.03574 0 9.01408 0H38.9859C43.9643 0 48 4.03574 48 9.01408V38.9859C48 43.9643 43.9643 48 38.9859 48H9.01408C4.03574 48 0 43.9643 0 38.9859V9.01408Z" fill="#BCBFB0"/>
<rect width="27.0423" height="27.0423" transform="translate(10.478 10.3672)" fill="#BCBFB0"/>
<path d="M36.7344 16.5742V17.9268H23.999V17.25H11.2646V16.5742H36.7344Z" fill="black"/>
<path d="M36.7344 20.9961V22.3486H23.999V21.6729H11.2646V20.9961H36.7344Z" fill="black"/>
<path d="M36.7344 25.4258V26.7773H23.999V26.1016H11.2646V25.4258H36.7344Z" fill="black"/>
<path d="M36.7344 29.8555V31.208H23.999V30.5312H11.2646V29.8555H36.7344Z" fill="black"/>
</svg>
